<svg width="61" height="61" viewBox="0 0 61 61" fill="none" xmlns="http://www.w3.org/2000/svg">
<path fill-rule="evenodd" clip-rule="evenodd" d="M61 30.5C61 47.3447 47.3447 61 30.5 61C22.4109 61 14.6531 57.7866 8.93324 52.0668C3.21338 46.3469 0 38.5891 0 30.5C0 13.6553 13.6553 0 30.5 0C47.3447 0 61 13.6553 61 30.5ZM57.188 30.5C57.188 15.7606 45.2394 3.812 30.5 3.812C23.4218 3.81174 16.6335 6.62341 11.6284 11.6284C6.62341 16.6335 3.81174 23.4218 3.812 30.5C3.812 45.2394 15.7606 57.188 30.5 57.188C45.2394 57.188 57.188 45.2394 57.188 30.5Z" fill="white"/>
<path d="M34.884 47.084L37.572 44.396L23.656 30.496L37.556 16.58L34.868 13.892L19.637 29.142C18.8977 29.8855 18.8977 31.0865 19.637 31.83L34.884 47.084Z" fill="white"/>
</svg>
