<svg width="32" height="32" viewBox="0 0 32 32" fill="none" xmlns="http://www.w3.org/2000/svg">
<path d="M17.3923 0.000488281C16.9019 0.0170382 16.5127 0.431905 16.5127 0.938033C16.5127 1.44416 16.9019 1.85903 17.3923 1.87558C23.9156 1.88332 29.202 7.33625 29.2095 14.0652C29.2255 14.571 29.6277 14.9725 30.1184 14.9725C30.609 14.9725 31.0112 14.571 31.0273 14.0652C31.0192 6.3009 24.9194 0.00878256 17.3923 0.000488281Z" fill="black"/>
<path d="M17.3923 3.75049C16.9019 3.76704 16.5127 4.1819 16.5127 4.68803C16.5127 5.19416 16.9019 5.60903 17.3923 5.62558C21.9081 5.63111 25.5675 9.40587 25.5729 14.064C25.562 14.4062 25.7329 14.7274 26.0186 14.9019C26.3042 15.0763 26.6594 15.0763 26.9451 14.9019C27.2307 14.7274 27.4016 14.4062 27.3907 14.064C27.3843 8.37075 22.9116 3.75712 17.3923 3.75049Z" fill="black"/>
<path d="M17.3923 7.50195C16.9019 7.5185 16.5127 7.93337 16.5127 8.4395C16.5127 8.94563 16.9019 9.36049 17.3923 9.37704C19.9014 9.37981 21.9346 11.4772 21.9373 14.0653C21.9534 14.5711 22.3555 14.9726 22.8462 14.9726C23.3369 14.9726 23.7391 14.5711 23.7551 14.0653C23.7508 10.4423 20.9046 7.50638 17.3923 7.50195V7.50195Z" fill="black"/>
<path d="M17.3923 11.252C16.9019 11.2685 16.5127 11.6834 16.5127 12.1895C16.5127 12.6956 16.9019 13.1105 17.3923 13.127C17.8946 13.127 18.3017 13.547 18.3017 14.0651C18.2909 14.4074 18.4617 14.7285 18.7474 14.903C19.0331 15.0774 19.3882 15.0774 19.6739 14.903C19.9596 14.7285 20.1304 14.4074 20.1195 14.0651C20.1179 12.5121 18.8979 11.2536 17.3923 11.252Z" fill="black"/>
<path d="M12.0787 6.1262L6.9375 0.822977C5.87175 -0.274326 4.14592 -0.274326 3.08016 0.822977L2.44116 1.48212L11.4397 10.7643L12.0787 10.1051C12.5912 9.57806 12.8793 8.86221 12.8793 8.11566C12.8793 7.36911 12.5912 6.65326 12.0787 6.1262Z" fill="black"/>
<path d="M31.2022 24.8903L26.061 19.5871C24.9818 18.525 23.2839 18.525 22.2047 19.5871L21.5647 20.2463L30.5632 29.5284L31.2022 28.8693C32.266 27.7699 32.266 25.9897 31.2022 24.8903Z" fill="black"/>
<path d="M19.1769 21.4386C18.1437 21.9573 16.9057 21.7465 16.0889 20.9129L10.796 15.4091C9.98791 14.5665 9.78359 13.2895 10.2864 12.2237L1.22559 2.88037C-1.35473 6.97266 -0.0475502 17.4868 6.93768 24.6912C13.8432 31.8143 24.142 33.4948 28.2085 30.7549L19.1769 21.4386Z" fill="black"/>
</svg>
