<svg width="61" height="61" viewBox="0 0 61 61" fill="none" xmlns="http://www.w3.org/2000/svg">
<path fill-rule="evenodd" clip-rule="evenodd" d="M0 30.5C0 13.6553 13.6553 0 30.5 0C38.5891 0 46.3469 3.21338 52.0668 8.93324C57.7866 14.6531 61 22.4109 61 30.5C61 47.3447 47.3447 61 30.5 61C13.6553 61 0 47.3447 0 30.5ZM3.812 30.5C3.812 45.2394 15.7606 57.188 30.5 57.188C37.5782 57.1883 44.3665 54.3766 49.3716 49.3716C54.3766 44.3665 57.1883 37.5782 57.188 30.5C57.188 15.7606 45.2394 3.812 30.5 3.812C15.7606 3.812 3.812 15.7606 3.812 30.5Z" fill="white"/>
<path d="M26.1162 13.916L23.4282 16.604L37.3442 30.504L23.4442 44.42L26.1322 47.108L41.3632 31.858C42.1026 31.1145 42.1026 29.9135 41.3632 29.17L26.1162 13.916Z" fill="white"/>
</svg>
